<?xml version="1.0" encoding="UTF-8" standalone="no"?>
<!-- Created with Inkscape (http://www.inkscape.org/) -->

<svg
   width="110.32698mm"
   height="33.609013mm"
   viewBox="0 0 110.32698 33.609013"
   version="1.1"
   id="svg1"
   xmlns="http://www.w3.org/2000/svg"
   xmlns:svg="http://www.w3.org/2000/svg">
  <defs
     id="defs1" />
  <g
     id="layer1"
     transform="translate(-48.794557,-130.68303)">
    <path
       d="m 52.065831,153.08904 q -1.34436,0 -2.330224,-0.94106 -0.941052,-0.98586 -0.941052,-2.33022 V 133.9095 q 0,-1.34436 0.941052,-2.28541 0.985864,-0.94106 2.330224,-0.94106 h 6.094432 q 1.389172,0 2.330224,0.94106 0.941052,0.94105 0.941052,2.28541 v 6.81142 q 0,1.34436 -0.941052,2.33023 -0.941052,0.94105 -2.330224,0.94105 h -5.15338 v 3.27127 q 0,0.67219 0.44812,1.16512 0.492932,0.44812 1.209924,0.44812 h 5.82556 l 0.941052,4.21233 z m 0.941052,-13.30917 h 2.599096 q 0.67218,0 1.1203,-0.44812 0.492932,-0.49293 0.492932,-1.16511 v -1.65805 q 0,-0.67218 -0.492932,-1.1203 -0.44812,-0.49293 -1.1203,-0.49293 h -0.941052 q -0.716992,0 -1.209924,0.49293 -0.44812,0.44812 -0.44812,1.1203 z m 10.217074,13.30917 4.212328,-11.20301 -4.212328,-11.203 h 4.212328 l 2.106164,5.6015 2.106164,-5.6015 h 4.167516 l -4.167516,11.203 4.167516,11.20301 h -4.167516 l -2.106164,-5.60151 -2.106164,5.60151 z m 17.207845,0 q -1.34436,0 -2.330224,-0.94106 -0.941052,-0.94105 -0.941052,-2.33022 v -6.76661 q 0,-1.34436 0.941052,-2.28542 0.985864,-0.98586 2.330224,-0.98586 h 3.495336 q 0.716992,0 1.165112,-0.44812 0.492932,-0.49293 0.492932,-1.16511 v -1.65805 q 0,-0.67218 -0.492932,-1.1203 -0.44812,-0.49293 -1.165112,-0.49293 h -4.839696 l 0.941052,-4.21233 h 6.49774 q 1.34436,0 2.285412,0.98587 0.985864,0.94105 0.985864,2.28541 v 19.13473 z m 2.554284,-4.21233 h 2.599096 v -4.88451 h -2.599096 q -0.67218,0 -1.165112,0.49293 -0.44812,0.44812 -0.44812,1.1203 v 1.65804 q 0,0.67219 0.44812,1.16512 0.492932,0.44812 1.165112,0.44812 z m 9.813765,4.21233 v -22.40601 h 17.790369 q 1.34436,0 2.28541,0.98587 0.94105,0.94105 0.94105,2.28541 v 19.13473 h -4.16752 v -16.58045 q 0,-0.67218 -0.49293,-1.1203 -0.49293,-0.49293 -1.16511,-0.49293 h -2.55428 v 18.19368 h -4.21233 v -16.58045 q 0,-0.67218 -0.49293,-1.1203 -0.49294,-0.49293 -1.165117,-0.49293 h -2.554284 v 18.19368 z m 24.332899,11.203 v -33.60901 h 9.36571 q 1.38917,0 2.33022,0.94106 0.94106,0.94105 0.94106,2.33022 v 15.86345 q 0,1.38917 -0.94106,2.33022 -0.94105,0.94106 -2.33022,0.94106 h -5.15338 v 11.203 z m 4.21233,-15.41533 h 2.5991 q 0.62736,0 1.1203,-0.49293 0.49293,-0.49294 0.49293,-1.12031 v -10.71006 q 0,-0.76181 -0.49293,-1.20993 -0.49294,-0.44812 -1.1203,-0.44812 h -2.5991 z m 10.6652,4.21233 v -22.40601 h 9.36571 q 1.34436,0 2.28541,0.98587 0.98587,0.94105 0.98587,2.28541 v 4.88451 l -4.21233,-0.94105 v -1.34436 q 0,-0.67218 -0.49293,-1.16512 -0.44812,-0.49293 -1.1203,-0.49293 h -2.5991 v 18.19368 z m 17.79037,0 q -1.38917,0 -2.33023,-0.94106 -0.94105,-0.98586 -0.94105,-2.33022 v -15.86345 q 0,-1.34436 0.94105,-2.28541 0.94106,-0.98587 2.33023,-0.98587 h 6.09443 q 1.34436,0 2.28541,0.98587 0.94105,0.94105 0.94105,2.28541 v 15.86345 q 0,1.34436 -0.94105,2.33022 -0.94105,0.94106 -2.28541,0.94106 z m 2.55428,-4.21233 h 0.94105 q 0.67218,0 1.16512,-0.44812 0.49293,-0.49293 0.49293,-1.16512 v -10.75488 q 0,-0.67218 -0.49293,-1.1203 -0.49294,-0.49293 -1.16512,-0.49293 h -0.94105 q -0.67218,0 -1.16511,0.49293 -0.44812,0.44812 -0.44812,1.1203 v 10.75488 q 0,0.67219 0.44812,1.16512 0.49293,0.44812 1.16511,0.44812 z"
       id="text1"
       style="font-size:44.812px;line-height:0;font-family:'Odibee Sans';-inkscape-font-specification:'Odibee Sans';fill:#4d4d4d;stroke-width:5.36288;stroke-dasharray:42.9026, 10.7257, 5.36288, 10.7257"
       aria-label="exampro" />
  </g>
</svg>
